<?xml version="1.0" standalone="no"?>
<!DOCTYPE svg PUBLIC "-//W3C//DTD SVG 20010904//EN"
 "http://www.w3.org/TR/2001/REC-SVG-20010904/DTD/svg10.dtd">
<svg version="1.0" xmlns="http://www.w3.org/2000/svg"
 width="512.000000pt" height="512.000000pt" viewBox="0 0 512.000000 512.000000"
 preserveAspectRatio="xMidYMid meet">
<metadata>
Created by potrace 1.14, written by Peter Selinger 2001-2017
</metadata>
<g transform="translate(0.000000,512.000000) scale(0.100000,-0.100000)"
fill="#000000" stroke="none">
<path d="M2340 5110 c-1056 -99 -1930 -808 -2234 -1811 -80 -265 -111 -508
-103 -812 10 -393 85 -701 257 -1053 349 -714 1010 -1227 1787 -1384 345 -69
717 -66 1070 11 210 45 477 146 673 254 497 274 906 728 1124 1246 206 493
255 1040 140 1559 -106 474 -340 897 -689 1245 -400 400 -882 643 -1438 726
-153 23 -446 32 -587 19z m555 -314 c1037 -164 1821 -1003 1916 -2051 44 -488
-93 -1020 -370 -1435 -353 -528 -878 -868 -1526 -986 -143 -26 -543 -27 -700
-1 -241 40 -437 102 -650 207 -462 226 -816 581 -1041 1045 -157 323 -224 618
-224 987 0 499 153 957 454 1358 87 116 263 300 371 387 159 128 375 259 560
338 160 69 411 135 585 154 52 6 111 13 130 15 75 9 400 -3 495 -18z"/>
<path d="M3452 3689 c-349 -41 -645 -309 -727 -660 -25 -106 -23 -289 4 -394
27 -104 97 -244 160 -323 28 -34 51 -67 51 -72 0 -6 -21 -49 -46 -96 -26 -48
-43 -89 -38 -94 10 -8 443 -250 449 -250 2 0 25 38 52 84 44 77 51 84 91 95
23 6 78 11 123 11 150 0 324 51 449 132 83 54 204 175 258 258 94 145 138 315
129 500 -6 131 -25 214 -72 316 -126 276 -379 459 -684 494 -95 11 -96 11
-199 -1z"/>
<path d="M1834 3180 c-37 -55 -72 -100 -78 -100 -6 0 -29 5 -51 10 -22 6 -92
10 -155 10 -223 1 -424 -79 -587 -233 -104 -98 -193 -248 -235 -394 -29 -102
-32 -320 -5 -428 42 -166 163 -353 299 -460 80 -63 218 -134 313 -160 94 -26
275 -31 374 -11 411 83 692 424 692 837 0 175 -54 352 -147 481 -19 28 -33 56
-30 64 3 7 30 49 61 93 30 43 55 83 55 88 0 8 -422 303 -434 303 -2 0 -35 -45
-72 -100z m328 -201 l37 -26 -84 -126 c-46 -69 -89 -128 -95 -132 -7 -4 -220
131 -269 171 -1 1 38 63 89 138 l92 134 97 -66 c53 -36 113 -78 133 -93z
m-504 13 l42 -7 -45 -67 c-25 -37 -45 -71 -45 -75 1 -9 420 -298 432 -298 4 0
29 32 55 70 27 39 53 70 58 70 16 0 103 -183 122 -255 25 -97 23 -273 -5 -373
-119 -420 -553 -651 -964 -511 -212 72 -390 250 -463 464 -41 120 -51 237 -31
356 53 316 283 555 596 619 71 14 181 17 248 7z"/>
</g>
</svg>
