<svg height="512" viewBox="0 0 64 64" width="512" xmlns="http://www.w3.org/2000/svg">
  <g id="Battle-Game-Esport-Video_Game-Multiplayer" data-name="Battle-Game-Esport-Video Game-Multiplayer">
    <path d="m61 40.87v20.13h-28v-20.13a6 6 0 0 1 3.52-5.47l7.48-3.4a3 3 0 0 0 6 0l7.48 3.4a6 6 0 0 1 3.52 5.47z"
          fill="#ff6243"/>
    <path d="m54 42h2v19h-2z" fill="#ed1c24"/>
    <path d="m38 42h2v19h-2z" fill="#ed1c24"/>
    <path d="m31 40.87v20.13h-28v-20.13a6 6 0 0 1 3.52-5.47l7.48-3.4a3 3 0 0 0 6 0l7.48 3.4a6 6 0 0 1 3.52 5.47z"
          fill="#3d9ae2"/>
    <path d="m8 42h2v19h-2z" fill="#1e81ce"/>
    <path d="m24 42h2v19h-2z" fill="#1e81ce"/>
    <path d="m20 29v3a3 3 0 0 1 -6 0v-3z" fill="#ffc477"/>
    <path d="m28 19v4a1 1 0 0 1 -1 1h-3v-6h3a1 1 0 0 1 1 1z" fill="#ee8700"/>
    <path d="m10 23v1h-3a1 1 0 0 1 -1-1v-4a1 1 0 0 1 1-1h3z" fill="#ee8700"/>
    <path
        d="m21.54 17.63-.54-1.63-1.87 1.4a7.982 7.982 0 0 1 -4.8 1.6h-4.33v-2a7 7 0 0 1 14 0v2h-.56a2.009 2.009 0 0 1 -1.9-1.37z"
        fill="#57565c"/>
    <path d="m20 29v2.32a6.958 6.958 0 0 1 -6 0v-2.32z" fill="#ffb655"/>
    <path
        d="m23.44 19a2.009 2.009 0 0 1 -1.9-1.37l-.54-1.63-1.87 1.4a7.982 7.982 0 0 1 -4.8 1.6h-4.33v4a7 7 0 0 0 14 0v-4z"
        fill="#ffc477"/>
    <path d="m50 29v3a3 3 0 0 1 -6 0v-3z" fill="#ffc477"/>
    <path d="m58 19v4a1 1 0 0 1 -1 1h-3v-6h3a1 1 0 0 1 1 1z" fill="#ee8700"/>
    <path d="m40 23v1h-3a1 1 0 0 1 -1-1v-4a1 1 0 0 1 1-1h3z" fill="#ee8700"/>
    <path
        d="m51.54 17.63-.54-1.63-1.87 1.4a7.982 7.982 0 0 1 -4.8 1.6h-4.33v-2a7 7 0 0 1 14 0v2h-.56a2.009 2.009 0 0 1 -1.9-1.37z"
        fill="#57565c"/>
    <path d="m50 29v2.32a6.958 6.958 0 0 1 -6 0v-2.32z" fill="#ffb655"/>
    <path
        d="m53.44 19a2.009 2.009 0 0 1 -1.9-1.37l-.54-1.63-1.87 1.4a7.982 7.982 0 0 1 -4.8 1.6h-4.33v4a7 7 0 0 0 14 0v-4z"
        fill="#ffc477"/>
    <path d="m19 21h2v2h-2z" fill="#ee8700"/>
    <path d="m13 21h2v2h-2z" fill="#ee8700"/>
    <path d="m27 18h-2v-3a8 8 0 0 0 -16 0v3h-2v-3a10 10 0 0 1 20 0z" fill="#cc7400"/>
    <path d="m49 21h2v2h-2z" fill="#ee8700"/>
    <path d="m43 21h2v2h-2z" fill="#ee8700"/>
    <path d="m57 18h-2v-3a8 8 0 0 0 -16 0v3h-2v-3a10 10 0 0 1 20 0z" fill="#cc7400"/>
    <path
        d="m38 42a7 7 0 0 1 7 7v5a2.006 2.006 0 0 1 -2 2h-3l-4.52-3.57a1.987 1.987 0 0 0 -1.24-.43h-4.48a1.987 1.987 0 0 0 -1.24.43l-4.52 3.57h-3a2.006 2.006 0 0 1 -2-2v-5a7 7 0 0 1 7-7z"
        fill="#acabb1"/>
    <g fill="#898890">
      <path d="m26 45h-2v2h-2v2h2v2h2v-2h2v-2h-2z"/>
      <path d="m38 45h2v2h-2z"/>
      <path d="m40 47h2v2h-2z"/>
      <path d="m38 49h2v2h-2z"/>
      <path d="m36 47h2v2h-2z"/>
    </g>
    <path d="m29 45h2v2h-2z" fill="#787680"/>
    <path d="m33 45h2v2h-2z" fill="#787680"/>
  </g>
</svg>
