<svg height="512" viewBox="0 0 58 54" width="512" xmlns="http://www.w3.org/2000/svg">
  <g id="Page-1" fill="none" fill-rule="evenodd">
    <g id="014---Water-Gun" fill-rule="nonzero">
      <path id="Rectangle-path" d="m9 12h26v8h-26z" fill="#4c8056"/>
      <path id="Shape" d="m50 23h6c1.1045695 0 2 .8954305 2 2v2c0 1.1045695-.8954305 2-2 2h-6z" fill="#e57e25"/>
      <path id="Shape" d="m46 20h4c1.1045695 0 2 .8954305 2 2v8c0 1.1045695-.8954305 2-2 2h-4z" fill="#95a5a5"/>
      <path id="Shape"
            d="m27 28c-.5522847 0-1 .4477153-1 1v7c0 1.6568542-1.3431458 3-3 3h-4.432l2.25-5h-14l-6.461 14.359c-.55680983 1.2377711-.44797918 2.6734487.28905276 3.8131409s2.00170208 1.8278956 3.35894724 1.8278591h5.227c1.5742634.0000423 3.0021585-.9233142 3.648-2.359l4.788-10.641h5.332c2.7600532-.0033061 4.9966939-2.2399468 5-5v-7c0-.5522847-.4477153-1-1-1z"
            fill="#d25627"/>
      <path id="Shape" d="m48 19v14c0 .5522847-.4477153 1-1 1h-5v-16h5c.5522847 0 1 .4477153 1 1z"
            fill="#bdc3c7"/>
      <path id="Shape" d="m29 18h15v16h-40c-2.209139 0-4-1.790861-4-4v-6z" fill="#f29c1f"/>
      <path id="Shape" d="m29 18v4c-.0032948 1.1032019-.8967981 1.9967052-2 2h-27v-2c0-2.209139 1.790861-4 4-4z"
            fill="#e57e25"/>
      <rect id="Rectangle-path" fill="#4fba6f" height="14" rx="7" width="40" x="2"/>
      <g fill="#f3d55b">
        <path id="Rectangle-path" d="m12 0h4v14h-4z"/>
        <path id="Rectangle-path" d="m28 0h4v14h-4z"/>
      </g>
    </g>
  </g>
</svg>
