<svg xmlns="http://www.w3.org/2000/svg" xmlns:xlink="http://www.w3.org/1999/xlink"
     xmlns:fi="http://pattern.flaticon.com/"
     x="0"
     y="0"
     width="852"
     height="480"
     viewBox="0 0 852 480"
>
  <defs>
    <g transform="matrix(0.12096773833036423 0 0 0.12096773833036423 291 157)" fill="#ffffff"
       id="L1_3">
      <path
          d="M272,240h-16v-16c0-4.418-3.582-8-8-8s-8,3.582-8,8v16h-16c-4.418,0-8,3.582-8,8s3.582,8,8,8h16v16c0,4.418,3.582,8,8,8     s8-3.582,8-8v-16h16c4.418,0,8-3.582,8-8S276.418,240,272,240z"/>
      <path
          d="M488,240h-48.2C435.523,140.315,355.685,60.477,256,56.2V8c0-4.418-3.582-8-8-8s-8,3.582-8,8v48.2     C140.315,60.477,60.477,140.315,56.2,240H8c-4.418,0-8,3.582-8,8s3.582,8,8,8h48.2c4.277,99.685,84.115,179.523,183.8,183.8V488     c0,4.418,3.582,8,8,8s8-3.582,8-8v-48.2c99.685-4.277,179.523-84.115,183.8-183.8H488c4.418,0,8-3.582,8-8S492.418,240,488,240z      M376,256h47.8c-4.241,90.859-76.941,163.559-167.8,167.8V376c0-4.418-3.582-8-8-8s-8,3.582-8,8v47.8     C149.141,419.559,76.441,346.859,72.2,256H120c4.418,0,8-3.582,8-8s-3.582-8-8-8H72.2C76.441,149.141,149.141,76.441,240,72.2     V120c0,4.418,3.582,8,8,8s8-3.582,8-8V72.2c90.859,4.241,163.559,76.941,167.8,167.8H376c-4.418,0-8,3.582-8,8     S371.582,256,376,256z"/>
      <path
          d="M248,160c-48.601,0-88,39.399-88,88c0,48.601,39.399,88,88,88s88-39.399,88-88C335.943,199.423,296.577,160.057,248,160z      M248,320c-39.764,0-72-32.236-72-72c0-39.765,32.236-72,72-72c39.765,0,72,32.235,72,72     C319.956,287.746,287.746,319.956,248,320z"/>
    </g>
    <g transform="matrix(0.1171872690320015 0 0 0.1171872690320015 225 34)" fill="#ffffff" id="L1_4">
      <path
          d="M120.363,249.083l-6.344-29.598c-0.869-4.052-4.856-6.632-8.911-5.764c-4.052,0.869-6.633,4.858-5.764,8.911l6.345,29.597    c0.755,3.522,3.868,5.933,7.33,5.933c0.521,0,1.05-0.055,1.58-0.168C118.651,257.125,121.232,253.136,120.363,249.083z"/>
      <path
          d="M144.966,234.391l-6.344-29.598c-0.869-4.052-4.856-6.631-8.911-5.764c-4.052,0.869-6.633,4.858-5.764,8.911l6.345,29.597    c0.755,3.522,3.868,5.933,7.33,5.933c0.521,0,1.05-0.055,1.58-0.168C143.254,242.433,145.835,238.444,144.966,234.391z"/>
      <path
          d="M169.568,219.698l-6.344-29.597c-0.869-4.053-4.857-6.631-8.91-5.765c-4.053,0.869-6.634,4.858-5.765,8.91l6.344,29.597    c0.755,3.522,3.868,5.933,7.33,5.933c0.521,0,1.05-0.055,1.58-0.168C167.856,227.739,170.437,223.75,169.568,219.698z"/>
      <path
          d="M194.169,205.006l-6.344-29.598c-0.869-4.052-4.857-6.631-8.911-5.764c-4.052,0.869-6.633,4.858-5.764,8.911l6.345,29.597    c0.755,3.522,3.868,5.933,7.33,5.933c0.521,0,1.05-0.055,1.58-0.168C192.457,213.048,195.038,209.059,194.169,205.006z"/>
      <path
          d="M474.288,61.443L442.925,8.93c-5.183-8.679-16.46-11.524-25.141-6.34L53.185,220.332    c-7.775,4.643-13.277,12.036-15.491,20.818c-2.215,8.781-0.877,17.899,3.767,25.674l22.768,38.123    c0.227,0.382,0.469,0.748,0.714,1.114l0.125,0.188c0.001,0.001,0.001,0.002,0.002,0.003c0,0,0,0.001,0.001,0.001    c6.796,10.226,18.825,15.709,31.401,14.318c8.803-0.967,17.109,4.756,19.32,13.334L156.5,491.778    c2.131,8.262,7.872,14.875,15.753,18.144c3.352,1.39,6.858,2.079,10.347,2.079c4.715,0,9.398-1.259,13.624-3.747l72.136-42.468    c10.288-6.057,15.391-18.36,12.41-29.919l-20.065-77.813c-3.568-13.841,2.486-28.466,14.712-35.56    c0.219-0.127,0.434-0.254,0.65-0.383l68.512-40.916c23.006-13.739,30.544-43.634,16.805-66.639l-15.269-25.568    c-0.19-0.318-0.17-0.62-0.12-0.818c0.05-0.198,0.177-0.474,0.495-0.665l111.94-66.853c9.489-5.666,12.598-17.994,6.933-27.484    l-7.772-13.013l14.102-8.422c1.708-1.02,2.942-2.678,3.429-4.608S475.308,63.152,474.288,61.443z M387.943,113.009    c2.125,3.558,6.733,4.721,10.291,2.595l46.471-27.753l7.772,13.012c1.424,2.384,0.642,5.481-1.741,6.904L338.794,174.62    c-3.69,2.203-6.301,5.712-7.352,9.88c-1.051,4.168-0.416,8.495,1.787,12.185l15.268,25.567c4.6,7.703,5.926,16.735,3.732,25.435    c-2.194,8.699-7.644,16.024-15.346,20.624l-68.513,40.916l-0.475,0.279c-18.032,10.462-26.965,31.966-21.724,52.295l20.064,77.814    c1.319,5.115-0.939,10.558-5.49,13.238l-72.136,42.467c-3.255,1.915-7.12,2.184-10.606,0.738    c-3.487-1.447-6.028-4.373-6.971-8.028l-40.708-157.873c-4.064-15.763-19.322-26.294-35.508-24.503    c-4.011,0.442-7.912-0.348-11.198-2.159L368.216,133.53c3.558-2.125,4.719-6.732,2.595-10.29    c-2.125-3.559-6.731-4.719-10.291-2.595L73.877,291.831l-19.531-32.703c-2.588-4.333-3.333-9.414-2.099-14.309    c1.234-4.893,4.3-9.014,8.634-11.602l364.6-217.743c1.574-0.94,3.62-0.424,4.56,1.151l27.514,46.07l-67.017,40.023    C386.98,104.843,385.818,109.45,387.943,113.009z"/>
      <path
          d="M254.352,431.723l-34.607-134.028c-1.113-4.318-4.116-7.766-8.241-9.462c-4.123-1.696-8.685-1.357-12.512,0.929    l-51.127,30.534c-5.3,3.165-7.926,9.551-6.385,15.53l34.928,135.459c1.109,4.301,4.098,7.744,8.201,9.446    c1.745,0.724,3.569,1.082,5.385,1.082c2.454,0,4.892-0.656,7.091-1.95l49.684-29.25    C253.058,446.311,256.176,438.79,254.352,431.723z M239.156,437.081L190.61,465.66l-34.412-133.458l49.347-29.471l34.275,132.744    C239.981,436.096,239.707,436.756,239.156,437.081z"/>
      <path
          d="M340.344,227.928l-15.624-26.16c-2.203-3.692-5.711-6.303-9.879-7.354c-4.17-1.051-8.495-0.416-12.186,1.788    l-57.362,34.257c-16.832,10.052-25.168,30.331-20.273,49.315l1.586,6.151c1.877,7.276,6.938,13.107,13.888,15.998    c2.923,1.216,5.976,1.819,9.013,1.819c4.054,0,8.075-1.075,11.71-3.205l71.599-42.759    C343.121,251.624,346.497,238.233,340.344,227.928z M325.121,244.891l-71.361,42.617l-0.161,0.096    c-2.228,1.306-4.904,1.473-7.341,0.46c-2.563-1.066-4.428-3.212-5.118-5.888l-1.586-6.151c-1.571-6.093-1.069-12.381,1.117-18.009    l4.644,3.133c5.332,3.597,11.545,5.408,17.768,5.408c5.633,0,11.273-1.484,16.271-4.469l7.451-4.45    c3.558-2.125,4.719-6.732,2.595-10.29c-2.125-3.558-6.732-4.718-10.291-2.595l-7.451,4.45c-5.545,3.313-12.591,3.118-17.949-0.495    l-4.246-2.865c1.106-0.908,2.275-1.752,3.527-2.5l57.362-34.257c0.195-0.117,0.385-0.154,0.548-0.154    c0.103,0,0.194,0.015,0.272,0.034c0.197,0.05,0.474,0.176,0.663,0.495l15.624,26.161    C329.37,238.822,328.322,242.98,325.121,244.891z"/>
    </g>
    <g transform="matrix(0.11718624085187912 0 0 0.11718624085187912 65 -13)" fill="#ffffff"
       id="L1_6">
      <path
          d="m392 16.003906h-64c-4.425781 0-8-3.578125-8-8 0-4.425781 3.574219-7.99999975 8-7.99999975h64c4.425781 0 8 3.57421875 8 7.99999975 0 4.421875-3.574219 8-8 8zm0 0"/>
      <path
          d="m392 96.003906h-64c-4.425781 0-8-3.578125-8-8 0-4.425781 3.574219-8 8-8h64c4.425781 0 8 3.574219 8 8 0 4.421875-3.574219 8-8 8zm0 0"/>
      <path
          d="m472.007812 56.003906c-2.71875 0-5.367187-1.386718-6.863281-3.882812-.878906-1.453125-22.640625-36.117188-73.144531-36.117188-4.425781 0-8-3.578125-8-8 0-4.425781 3.574219-7.99999975 8-7.99999975 59.839844 0 85.785156 42.09374975 86.855469 43.87890575 2.273437 3.792969 1.046875 8.703126-2.742188 10.976563-1.28125.773437-2.707031 1.144531-4.105469 1.144531zm0 0"/>
      <path
          d="m392 96.003906c-4.425781 0-8-3.578125-8-8 0-4.425781 3.574219-8 8-8 50.878906 0 72.921875-35.761718 73.144531-36.121094 2.269531-3.785156 7.175781-5.023437 10.976563-2.742187 3.789062 2.269531 5.015625 7.183594 2.742187 10.972656-1.078125 1.800781-27.023437 43.890625-86.863281 43.890625zm0 0"/>
      <path
          d="m328 96.003906c-4.425781 0-8-3.578125-8-8v-80c0-4.425781 3.574219-7.99999975 8-7.99999975s8 3.57421875 8 7.99999975v80c0 4.421875-3.574219 8-8 8zm0 0"/>
      <path
          d="m296 16.003906h-200c-4.425781 0-8-3.578125-8-8 0-4.425781 3.574219-7.99999975 8-7.99999975h200c4.425781 0 8 3.57421875 8 7.99999975 0 4.421875-3.574219 8-8 8zm0 0"/>
      <path
          d="m232 96.003906h-72c-4.425781 0-8-3.578125-8-8 0-4.425781 3.574219-8 8-8h72c4.425781 0 8 3.574219 8 8 0 4.421875-3.574219 8-8 8zm0 0"/>
      <path
          d="m296 56.003906h-208c-4.425781 0-8-3.578125-8-8 0-4.425781 3.574219-8 8-8h208c4.425781 0 8 3.574219 8 8 0 4.421875-3.574219 8-8 8zm0 0"/>
      <path
          d="m64 16.003906h-24c-4.425781 0-8-3.578125-8-8 0-4.425781 3.574219-7.99999975 8-7.99999975h24c4.425781 0 8 3.57421875 8 7.99999975 0 4.421875-3.574219 8-8 8zm0 0"/>
      <path
          d="m296 96.003906h-32c-4.425781 0-8-3.578125-8-8 0-4.425781 3.574219-8 8-8h32c4.425781 0 8 3.574219 8 8 0 4.421875-3.574219 8-8 8zm0 0"/>
      <path
          d="m328 320.257812h-88c-4.425781 0-8-3.574218-8-8 0-4.421874 3.574219-8 8-8h88c4.425781 0 8 3.578126 8 8 0 4.425782-3.574219 8-8 8zm0 0"/>
      <path
          d="m272 400.257812h-128c-4.425781 0-8-3.574218-8-8 0-4.421874 3.574219-8 8-8h128c4.425781 0 8 3.578126 8 8 0 4.425782-3.574219 8-8 8zm0 0"/>
      <path
          d="m328 360.257812h-160c-4.425781 0-8-3.574218-8-8 0-4.421874 3.574219-8 8-8h160c4.425781 0 8 3.578126 8 8 0 4.425782-3.574219 8-8 8zm0 0"/>
      <path
          d="m208 320.257812h-112c-4.425781 0-8-3.574218-8-8 0-4.421874 3.574219-8 8-8h112c4.425781 0 8 3.578126 8 8 0 4.425782-3.574219 8-8 8zm0 0"/>
      <path
          d="m328 400.257812h-24c-4.425781 0-8-3.574218-8-8 0-4.421874 3.574219-8 8-8h24c4.425781 0 8 3.578126 8 8 0 4.425782-3.574219 8-8 8zm0 0"/>
      <path
          d="m272 168.003906h-64c-4.425781 0-8-3.578125-8-8 0-4.425781 3.574219-8 8-8h64c4.425781 0 8 3.574219 8 8 0 4.421875-3.574219 8-8 8zm0 0"/>
      <path
          d="m272 248.003906h-64c-4.425781 0-8-3.578125-8-8 0-4.425781 3.574219-8 8-8h64c4.425781 0 8 3.574219 8 8 0 4.421875-3.574219 8-8 8zm0 0"/>
      <path
          d="m352.007812 208.003906c-2.71875 0-5.367187-1.386718-6.863281-3.882812-.878906-1.453125-22.640625-36.117188-73.144531-36.117188-4.425781 0-8-3.578125-8-8 0-4.425781 3.574219-8 8-8 59.839844 0 85.785156 42.09375 86.855469 43.878906 2.273437 3.792969 1.046875 8.703126-2.742188 10.976563-1.28125.773437-2.707031 1.144531-4.105469 1.144531zm0 0"/>
      <path
          d="m272 248.003906c-4.425781 0-8-3.578125-8-8 0-4.425781 3.574219-8 8-8 50.878906 0 72.921875-35.761718 73.144531-36.121094 2.261719-3.792968 7.175781-5.015624 10.976563-2.742187 3.789062 2.269531 5.015625 7.183594 2.742187 10.972656-1.078125 1.800781-27.023437 43.890625-86.863281 43.890625zm0 0"/>
      <path
          d="m208 248.003906c-4.425781 0-8-3.578125-8-8v-80c0-4.425781 3.574219-8 8-8s8 3.574219 8 8v80c0 4.421875-3.574219 8-8 8zm0 0"/>
      <path
          d="m424 320.003906h-64c-4.425781 0-8-3.578125-8-8 0-4.425781 3.574219-8 8-8h64c4.425781 0 8 3.574219 8 8 0 4.421875-3.574219 8-8 8zm0 0"/>
      <path
          d="m424 400.003906h-64c-4.425781 0-8-3.578125-8-8 0-4.425781 3.574219-8 8-8h64c4.425781 0 8 3.574219 8 8 0 4.421875-3.574219 8-8 8zm0 0"/>
      <path
          d="m504.007812 360.003906c-2.71875 0-5.367187-1.386718-6.863281-3.882812-.878906-1.453125-22.640625-36.117188-73.144531-36.117188-4.425781 0-8-3.578125-8-8 0-4.425781 3.574219-8 8-8 59.839844 0 85.785156 42.09375 86.855469 43.878906 2.273437 3.792969 1.046875 8.703126-2.742188 10.976563-1.28125.773437-2.707031 1.144531-4.105469 1.144531zm0 0"/>
      <path
          d="m424 400.003906c-4.425781 0-8-3.578125-8-8 0-4.425781 3.574219-8 8-8 50.878906 0 72.921875-35.761718 73.144531-36.121094 2.269531-3.785156 7.183594-5.015624 10.976563-2.742187 3.789062 2.269531 5.015625 7.183594 2.742187 10.972656-1.078125 1.800781-27.023437 43.890625-86.863281 43.890625zm0 0"/>
      <path
          d="m360 400.003906c-4.425781 0-8-3.578125-8-8v-80c0-4.425781 3.574219-8 8-8s8 3.574219 8 8v80c0 4.421875-3.574219 8-8 8zm0 0"/>
      <path
          d="m136 168.003906h-88c-4.425781 0-8-3.578125-8-8 0-4.425781 3.574219-8 8-8h88c4.425781 0 8 3.574219 8 8 0 4.421875-3.574219 8-8 8zm0 0"/>
      <path
          d="m176 168.003906h-16c-4.425781 0-8-3.578125-8-8 0-4.425781 3.574219-8 8-8h16c4.425781 0 8 3.574219 8 8 0 4.421875-3.574219 8-8 8zm0 0"/>
      <path
          d="m176 208.003906h-168c-4.425781 0-8-3.578125-8-8 0-4.425781 3.574219-8 8-8h168c4.425781 0 8 3.574219 8 8 0 4.421875-3.574219 8-8 8zm0 0"/>
      <path
          d="m176 248.003906h-72c-4.425781 0-8-3.578125-8-8 0-4.425781 3.574219-8 8-8h72c4.425781 0 8 3.574219 8 8 0 4.421875-3.574219 8-8 8zm0 0"/>
      <path
          d="m72 248.003906h-40c-4.425781 0-8-3.578125-8-8 0-4.425781 3.574219-8 8-8h40c4.425781 0 8 3.574219 8 8 0 4.421875-3.574219 8-8 8zm0 0"/>
    </g>
    <g transform="matrix(0.1209663450717926 0 0 0.1209663450717926 133 211)" fill="#ffffff" id="L1_7">
      <path
          d="m493.660156 402.351562-32-32c-3.128906-3.128906-8.183594-3.128906-11.3125 0l-10.34375 10.34375-60.6875-60.691406 42.34375-42.34375c2.289063-2.285156 2.976563-5.726562 1.738282-8.71875-1.242188-2.984375-4.160157-4.9375-7.394532-4.9375h-64c-2.117187 0-4.160156.84375-5.65625 2.347656l-2.34375 2.34375-20.6875-20.691406 82.34375-82.34375c.496094-.496094.921875-1.046875 1.265625-1.644531l88-152c1.808594-3.113281 1.304688-7.050781-1.21875-9.617187-2.519531-2.570313-6.429687-3.144532-9.589843-1.382813l-144 80c-.648438.359375-1.25.804687-1.769532 1.335937l-90.34375 90.34375-90.34375-90.34375c-.519531-.53125-1.121094-.976562-1.765625-1.335937l-144-80c-3.160156-1.753906-7.074219-1.179687-9.59375 1.382813-2.519531 2.566406-3.023437 6.503906-1.214843 9.617187l88 152c.34375.597656.773437 1.15625 1.261718 1.644531l82.34375 82.34375-20.6875 20.691406-2.34375-2.34375c-1.496094-1.503906-3.535156-2.347656-5.65625-2.347656h-64c-3.230468 0-6.152344 1.953125-7.390625 4.9375-1.242187 2.992188-.550781 6.433594 1.734375 8.71875l42.34375 42.34375-60.6875 60.691406-10.34375-10.34375c-3.128906-3.128906-8.183594-3.128906-11.3125 0l-32 32c-3.125 3.125-3.125 8.183594 0 11.308594l80 80c1.5625 1.5625 3.609375 2.34375 5.65625 2.34375 2.050782 0 4.097656-.78125 5.65625-2.34375l32-32c3.128906-3.125 3.128906-8.183594 0-11.308594l-10.34375-10.347656 60.6875-60.6875 42.34375 42.34375c1.527344 1.53125 3.578125 2.34375 5.65625 2.34375 1.03125 0 2.074219-.199218 3.066406-.605468 2.984376-1.242188 4.933594-4.160157 4.933594-7.394532v-64c0-2.117187-.839844-4.15625-2.34375-5.652344l-2.34375-2.347656 20.6875-20.6875 20.6875 20.6875-2.34375 2.347656c-1.503906 1.496094-2.34375 3.535157-2.34375 5.652344v64c0 3.234375 1.953125 6.152344 4.9375 7.394532.992188.40625 2.03125.605468 3.0625.605468 2.082032 0 4.128906-.8125 5.65625-2.34375l42.34375-42.34375 60.6875 60.6875-10.34375 10.347656c-3.125 3.125-3.125 8.183594 0 11.308594l32 32c1.5625 1.5625 3.609375 2.34375 5.65625 2.34375 2.050782 0 4.097656-.78125 5.65625-2.34375l80-80c3.128906-3.125 3.128906-8.183594 0-11.308594zm-88.96875-34.347656-36.6875 36.691406-12.6875-12.691406 36.6875-36.6875zm-55.824218-273.550781 117.699218-65.382813-72.960937 126.023438-81.601563 81.601562-20.6875-20.691406 82.34375-82.34375-11.3125-11.308594-82.34375 82.34375-20.6875-20.691406zm-164.863282 164.863281 20.6875 20.6875-20.6875 20.691406-20.6875-20.691406zm-80 96 36.6875 36.6875-12.6875 12.691406-36.6875-36.691406zm-16 121.378906-68.6875-68.691406 20.6875-20.6875 68.6875 68.6875zm-20.6875-84.691406 12.6875-12.6875 36.6875 36.6875-12.6875 12.691406zm84.6875-11.308594-36.6875-36.691406 12.6875-12.6875 36.6875 36.6875zm64 16-116.6875-116.691406h41.375l75.3125 75.3125zm0-64-20.6875-20.691406 20.6875-20.6875 20.6875 20.6875zm-113.597656-177.601562-72.960938-126.023438 117.695313 65.382813 185.550781 185.550781-20.6875 20.691406-178.34375-178.34375-11.3125 11.308594 178.34375 178.34375-20.6875 20.691406zm177.597656 200.222656 75.3125-75.3125h41.375l-116.6875 116.691406zm88-24 12.6875 12.6875-36.6875 36.691406-12.6875-12.691406zm11.3125 84.6875 36.6875-36.6875 12.6875 12.6875-36.6875 36.691406zm28.6875 60.691406-20.6875-20.691406 68.6875-68.6875 20.6875 20.6875zm0 0"/>
    </g>
    <g transform="matrix(0.11871784925460815 0 0 0.11871784925460815 55 102)" fill="#ffffff"
       id="L1_8">
      <path
          d="M437.1,233.45c14.8-10.4,24.6-27.7,24.6-47.2c0-31.9-25.8-57.7-57.7-57.7c-31.9,0-57.7,25.8-57.7,57.7    c0,19.5,9.7,36.8,24.6,47.2c-12.7,4.4-24.3,11.2-34.1,20c-13.5-11.5-29.4-20.3-46.8-25.5c21.1-12.8,35.3-36.1,35.3-62.6    c0-40.4-32.7-73.1-73.1-73.1c-40.4,0-73.1,32.8-73.1,73.1c0,26.5,14.1,49.8,35.3,62.6c-17.2,5.2-32.9,13.9-46.3,25.2    c-9.8-8.6-21.2-15.3-33.7-19.6c14.8-10.4,24.6-27.7,24.6-47.2c0-31.9-25.8-57.7-57.7-57.7s-57.7,25.8-57.7,57.7    c0,19.5,9.7,36.8,24.6,47.2C28.5,247.25,0,284.95,0,329.25v6.6c0,0.2,0.2,0.4,0.4,0.4h122.3c-0.7,5.5-1.1,11.2-1.1,16.9v6.8    c0,29.4,23.8,53.2,53.2,53.2h155c29.4,0,53.2-23.8,53.2-53.2v-6.8c0-5.7-0.4-11.4-1.1-16.9H505c0.2,0,0.4-0.2,0.4-0.4v-6.6    C505.2,284.85,476.8,247.15,437.1,233.45z M362.3,186.15c0-23,18.7-41.7,41.7-41.7s41.7,18.7,41.7,41.7    c0,22.7-18.3,41.2-40.9,41.7c-0.3,0-0.5,0-0.8,0s-0.5,0-0.8,0C380.5,227.45,362.3,208.95,362.3,186.15z M194.9,165.35    c0-31.5,25.6-57.1,57.1-57.1s57.1,25.6,57.1,57.1c0,30.4-23.9,55.3-53.8,57c-1.1,0-2.2,0-3.3,0c-1.1,0-2.2,0-3.3,0    C218.8,220.65,194.9,195.75,194.9,165.35z M59.3,186.15c0-23,18.7-41.7,41.7-41.7s41.7,18.7,41.7,41.7c0,22.7-18.3,41.2-40.9,41.7    c-0.3,0-0.5,0-0.8,0s-0.5,0-0.8,0C77.6,227.45,59.3,208.95,59.3,186.15z M125.5,320.15H16.2c4.5-42.6,40.5-76,84.2-76.3    c0.2,0,0.4,0,0.6,0s0.4,0,0.6,0c20.8,0.1,39.8,7.8,54.5,20.3C141.7,279.75,131,298.95,125.5,320.15z M366.8,359.95    c0,20.5-16.7,37.2-37.2,37.2h-155c-20.5,0-37.2-16.7-37.2-37.2v-6.8c0-62.1,49.6-112.9,111.3-114.7c1.1,0.1,2.3,0.1,3.4,0.1    s2.3,0,3.4-0.1c61.7,1.8,111.3,52.6,111.3,114.7V359.95z M378.7,320.15c-5.5-21.1-16-40-30.3-55.6c14.8-12.8,34-20.5,55-20.7    c0.2,0,0.4,0,0.6,0s0.4,0,0.6,0c43.7,0.3,79.7,33.7,84.2,76.3H378.7z"/>
    </g>
    <g transform="matrix(0.1171875 0 0 0.1171875 295 285)" fill="#ffffff" id="L1_9">
      <path
          d="M489.392,350.165l-28.4-142.01A40.109,40.109,0,0,0,421.766,176H264V64a48,48,0,0,0-96,0,32,32,0,0,1-64,0V24a8,8,0,0,0-16,0V64a48,48,0,0,0,96,0,32,32,0,0,1,64,0V176H90.234A40.109,40.109,0,0,0,51.01,208.155l-28.4,142.01A341.089,341.089,0,0,0,16,416.906v.167A79.7,79.7,0,0,0,34.654,468.3a77.39,77.39,0,0,0,47.4,26.773,78.13,78.13,0,0,0,80.845-40.16l26.189-48.64A27.105,27.105,0,0,1,212.99,392h86.02a27.105,27.105,0,0,1,23.9,14.273l26.19,48.641a78.343,78.343,0,0,0,78.612,40.471C466.642,490.505,496,456.813,496,417.016v-.11A341.089,341.089,0,0,0,489.392,350.165ZM200,192H312v32a24.027,24.027,0,0,1-24,24H224a24.027,24.027,0,0,1-24-24ZM125.98,471.21A62.522,62.522,0,0,1,84.5,479.26C54.568,474.648,32,447.914,32,417.073v-.167a325.054,325.054,0,0,1,6.3-63.6l1.282-6.409L145.49,452.8A62.14,62.14,0,0,1,125.98,471.21ZM337,398.688A43.087,43.087,0,0,0,299.01,376H212.99a43.087,43.087,0,0,0-37.985,22.688l-21.35,39.653-110.3-110.3L66.7,211.293A24.065,24.065,0,0,1,90.234,192H184v32a40.045,40.045,0,0,0,40,40h64a40.045,40.045,0,0,0,40-40V192h93.766A24.065,24.065,0,0,1,445.3,211.293l23.349,116.744-110.3,110.3ZM480,417.016c0,31.748-23.335,58.614-54.281,62.493A62.106,62.106,0,0,1,366.51,452.8l105.91-105.91L473.7,353.3a325.054,325.054,0,0,1,6.3,63.6Z"/>
      <path
          d="M168,272H144V248a8,8,0,0,0-8-8H104a8,8,0,0,0-8,8v24H72a8,8,0,0,0-8,8v32a8,8,0,0,0,8,8H96v24a8,8,0,0,0,8,8h32a8,8,0,0,0,8-8V320h24a8,8,0,0,0,8-8V280A8,8,0,0,0,168,272Zm-8,32H136a8,8,0,0,0-8,8v24H112V312a8,8,0,0,0-8-8H80V288h24a8,8,0,0,0,8-8V256h16v24a8,8,0,0,0,8,8h24Z"/>
      <path
          d="M392,352a56,56,0,1,0-56-56A56.064,56.064,0,0,0,392,352Zm0-96a40,40,0,1,1-40,40A40.045,40.045,0,0,1,392,256Z"/>
      <path d="M224,360a24,24,0,1,1,24-24A24.027,24.027,0,0,1,224,360Zm0-32a8,8,0,1,0,8,8A8.009,8.009,0,0,0,224,328Z"/>
      <path d="M288,360a24,24,0,1,1,24-24A24.027,24.027,0,0,1,288,360Zm0-32a8,8,0,1,0,8,8A8.009,8.009,0,0,0,288,328Z"/>
    </g>
  </defs>
  <g fi:class="KUsePattern">
    <pattern id="pattern_L1_3" width="350" height="350" patternUnits="userSpaceOnUse">
      <use xlink:href="#L1_3" x="-350" y="-350"/>
      <use xlink:href="#L1_3" x="0" y="-350"/>
      <use xlink:href="#L1_3" x="350" y="-350"/>
      <use xlink:href="#L1_3" x="-350" y="0"/>
      <use xlink:href="#L1_3" x="0" y="0"/>
      <use xlink:href="#L1_3" x="350" y="0"/>
      <use xlink:href="#L1_3" x="-350" y="350"/>
      <use xlink:href="#L1_3" x="0" y="350"/>
      <use xlink:href="#L1_3" x="350" y="350"/>
    </pattern>
    <rect x="0" y="0" width="100%" height="100%" fill="url(#pattern_L1_3)"/>
  </g>
  <g fi:class="KUsePattern">
    <pattern id="pattern_L1_4" width="350" height="350" patternUnits="userSpaceOnUse">
      <use xlink:href="#L1_4" x="-350" y="-350"/>
      <use xlink:href="#L1_4" x="0" y="-350"/>
      <use xlink:href="#L1_4" x="350" y="-350"/>
      <use xlink:href="#L1_4" x="-350" y="0"/>
      <use xlink:href="#L1_4" x="0" y="0"/>
      <use xlink:href="#L1_4" x="350" y="0"/>
      <use xlink:href="#L1_4" x="-350" y="350"/>
      <use xlink:href="#L1_4" x="0" y="350"/>
      <use xlink:href="#L1_4" x="350" y="350"/>
    </pattern>
    <rect x="0" y="0" width="100%" height="100%" fill="url(#pattern_L1_4)"/>
  </g>
  <g fi:class="KUsePattern">
    <pattern id="pattern_L1_6" width="350" height="350" patternUnits="userSpaceOnUse">
      <use xlink:href="#L1_6" x="-350" y="-350"/>
      <use xlink:href="#L1_6" x="0" y="-350"/>
      <use xlink:href="#L1_6" x="350" y="-350"/>
      <use xlink:href="#L1_6" x="-350" y="0"/>
      <use xlink:href="#L1_6" x="0" y="0"/>
      <use xlink:href="#L1_6" x="350" y="0"/>
      <use xlink:href="#L1_6" x="-350" y="350"/>
      <use xlink:href="#L1_6" x="0" y="350"/>
      <use xlink:href="#L1_6" x="350" y="350"/>
    </pattern>
    <rect x="0" y="0" width="100%" height="100%" fill="url(#pattern_L1_6)"/>
  </g>
  <g fi:class="KUsePattern">
    <pattern id="pattern_L1_7" width="350" height="350" patternUnits="userSpaceOnUse">
      <use xlink:href="#L1_7" x="-350" y="-350"/>
      <use xlink:href="#L1_7" x="0" y="-350"/>
      <use xlink:href="#L1_7" x="350" y="-350"/>
      <use xlink:href="#L1_7" x="-350" y="0"/>
      <use xlink:href="#L1_7" x="0" y="0"/>
      <use xlink:href="#L1_7" x="350" y="0"/>
      <use xlink:href="#L1_7" x="-350" y="350"/>
      <use xlink:href="#L1_7" x="0" y="350"/>
      <use xlink:href="#L1_7" x="350" y="350"/>
    </pattern>
    <rect x="0" y="0" width="100%" height="100%" fill="url(#pattern_L1_7)"/>
  </g>
  <g fi:class="KUsePattern">
    <pattern id="pattern_L1_8" width="350" height="350" patternUnits="userSpaceOnUse">
      <use xlink:href="#L1_8" x="-350" y="-350"/>
      <use xlink:href="#L1_8" x="0" y="-350"/>
      <use xlink:href="#L1_8" x="350" y="-350"/>
      <use xlink:href="#L1_8" x="-350" y="0"/>
      <use xlink:href="#L1_8" x="0" y="0"/>
      <use xlink:href="#L1_8" x="350" y="0"/>
      <use xlink:href="#L1_8" x="-350" y="350"/>
      <use xlink:href="#L1_8" x="0" y="350"/>
      <use xlink:href="#L1_8" x="350" y="350"/>
    </pattern>
    <rect x="0" y="0" width="100%" height="100%" fill="url(#pattern_L1_8)"/>
  </g>
  <g fi:class="KUsePattern">
    <pattern id="pattern_L1_9" width="350" height="350" patternUnits="userSpaceOnUse">
      <use xlink:href="#L1_9" x="-350" y="-350"/>
      <use xlink:href="#L1_9" x="0" y="-350"/>
      <use xlink:href="#L1_9" x="350" y="-350"/>
      <use xlink:href="#L1_9" x="-350" y="0"/>
      <use xlink:href="#L1_9" x="0" y="0"/>
      <use xlink:href="#L1_9" x="350" y="0"/>
      <use xlink:href="#L1_9" x="-350" y="350"/>
      <use xlink:href="#L1_9" x="0" y="350"/>
      <use xlink:href="#L1_9" x="350" y="350"/>
    </pattern>
    <rect x="0" y="0" width="100%" height="100%" fill="url(#pattern_L1_9)"/>
  </g>
</svg>
