<svg height="512" viewBox="0 0 58 46" width="512" xmlns="http://www.w3.org/2000/svg">
  <g id="Page-1" fill="none" fill-rule="evenodd">
    <g id="031---WASD" fill-rule="nonzero">
      <path id="Shape"
            d="m55.28 18.67c-.1633598-.9615614-.9946678-1.6662743-1.97-1.67h-15.31l-.8-15.04c-.0412073-1.08042235-.9189657-1.94062562-2-1.96h-12.4c-1.0810343.01937438-1.9587927.87957765-2 1.96l-.8 15.04h-15.31c-.97533219.0037257-1.80664021.7084386-1.97 1.67l-2.72 16.33v9c.0032948 1.1032019.89679813 1.9967052 2 2h15c1.1032019-.0032948 1.9967052-.8967981 2-2 .031065 1.1346376.975325 2.0296708 2.11 2h15.78c1.134675.0296708 2.078935-.8653624 2.11-2 .0032948 1.1032019.8967981 1.9967052 2 2h15c1.1032019-.0032948 1.9967052-.8967981 2-2v-9z"
            fill="#3b97d3"/>
      <path id="Shape"
            d="m19 35v9c-.0032948 1.1032019-.8967981 1.9967052-2 2h-15c-1.10320187-.0032948-1.9967052-.8967981-2-2v-9z"
            fill="#285680"/>
      <path id="Shape"
            d="m39 35v9c-.031065 1.1346376-.975325 2.0296708-2.11 2h-15.78c-1.134675.0296708-2.078935-.8653624-2.11-2v-9z"
            fill="#35495e"/>
      <path id="Shape"
            d="m58 35v9c-.0032948 1.1032019-.8967981 1.9967052-2 2h-15c-1.1032019-.0032948-1.9967052-.8967981-2-2v-9z"
            fill="#285680"/>
      <path id="Shape" d="m39 35h-20l1-18h18z" fill="#2980ba"/>
      <g fill="#fff">
        <path id="Shape"
              d="m33.128 3.808c-.2631052-.03400898-.5289418.03792436-.7389969.19996692-.2100552.16204256-.347112.40091265-.3810031.66403308l-.508 3.914-1.732-2.1c-.1961674-.21951529-.4766047-.34500435-.771-.34500435s-.5748326.12548906-.771.34500435l-1.732 2.1-.5-3.914c-.0706924-.54786647-.5721335-.93469245-1.12-.864s-.9346924.57213353-.864 1.12l.8 6.2c.0508597.395263.3315564.7225953.7144399.8331385.3828834.1105433.7948529-.0168078 1.0485601-.3241385l2.427-2.937 2.429 2.942c.1909643.2280636.4735462.3592754.771.358.0940167-.0001889.1875605-.0133119.278-.039.3826696-.1106707.6631573-.4379063.714-.833l.8-6.2c.034009-.26310522-.0379244-.52894178-.1999669-.73899695-.1620426-.21005517-.4009127-.34711195-.6640331-.38100305z"/>
        <path id="Shape"
              d="m11.949 20.684c-.1252166-.376376-.4610555-.6431638-.856-.68-.3953781-.0389794-.7758763.161697-.967.51l-5 9c-.26841037.4826969-.09469685 1.0915896.38800001 1.36.48269687.2684104 1.09158959.0946969 1.35999999-.388l1.381-2.486h4.024l.772 2.316c.174522.5246705.7413295.808522 1.266.634s.808522-.7413295.634-1.266zm-2.583 5.316 1.4-2.527.846 2.527z"/>
        <path id="Shape"
              d="m29 22c1.179 0 2 .659 2 1.25 0 .5522847.4477153 1 1 1s1-.4477153 1-1c0-1.822-1.757-3.25-4-3.25s-4 1.428-4 3.25 1.757 3.25 4 3.25c1.179 0 2 .659 2 1.25s-.821 1.25-2 1.25-2-.659-2-1.25c0-.5522847-.4477153-1-1-1s-1 .4477153-1 1c0 1.822 1.757 3.25 4 3.25s4-1.428 4-3.25-1.757-3.25-4-3.25c-1.179 0-2-.659-2-1.25s.821-1.25 2-1.25z"/>
        <path id="Shape"
              d="m46 20h-2c-.2843795-.0000195-.5553168.1210399-.7450288.3328913-.189712.2118515-.2802529.494455-.2489712.7771087l1 9c.0560715.5066479.4842588.8900349.994.89h2c1.3809502.1072179 2.7386486-.4015987 3.709-1.39.8629483-1.0016987 1.3230377-2.2882384 1.291-3.61-.0033074-3.3123376-2.6876624-5.9966926-6-6zm3.227 8.269c-.5941106.5670396-1.4124134.8356428-2.227.731h-1.1l-.778-7h.878c2.209139 0 4 1.790861 4 4 .0263325.8250949-.2484226 1.6315883-.773 2.269z"/>
        <path id="Shape"
              d="m7 43h-3c-.55228475 0-1-.4477153-1-1v-3c0-.5522847.44771525-1 1-1s1 .4477153 1 1v2h2c.55228475 0 1 .4477153 1 1s-.44771525 1-1 1z"/>
      </g>
    </g>
  </g>
</svg>
