<svg id="Layer_1" enable-background="new 0 0 512 512" height="512" viewBox="0 0 512 512" width="512"
     xmlns="http://www.w3.org/2000/svg">
  <g>
    <path
        d="m478.5 67.91v376.18c0 18.97-15.44 34.41-34.41 34.41h-376.18c-18.97 0-34.41-15.44-34.41-34.41v-376.18c0-18.97 15.44-34.41 34.41-34.41h376.18c18.97 0 34.41 15.44 34.41 34.41z"
        fill="#dcf3ff"/>
    <path
        d="m478.5 67.91v376.18c0 18.97-15.44 34.41-34.41 34.41h-30c19 0 34.41-15.41 34.41-34.41v-376.18c0-19-15.41-34.41-34.41-34.41h30c18.97 0 34.41 15.44 34.41 34.41z"
        fill="#9bc9e0"/>
    <path d="m478.5 67.91v43.78h-445v-43.78c0-18.97 15.44-34.41 34.41-34.41h376.18c18.97 0 34.41 15.44 34.41 34.41z"
          fill="#325a93"/>
    <g>
      <path
          d="m107 66.095h-32.279c-4.142 0-7.5 3.358-7.5 7.5s3.358 7.5 7.5 7.5h32.279c4.142 0 7.5-3.358 7.5-7.5s-3.358-7.5-7.5-7.5z"
          fill="#ff6187"/>
      <path
          d="m176.418 66.095h-32.279c-4.142 0-7.5 3.358-7.5 7.5s3.358 7.5 7.5 7.5h32.279c4.142 0 7.5-3.358 7.5-7.5s-3.358-7.5-7.5-7.5z"
          fill="#5fe1ff"/>
      <path
          d="m246.571 66.095h-32.279c-4.142 0-7.5 3.358-7.5 7.5s3.358 7.5 7.5 7.5h32.279c4.142 0 7.5-3.358 7.5-7.5s-3.358-7.5-7.5-7.5z"
          fill="#ffec61"/>
    </g>
    <path
        d="m512 145.43v135.63c0 4.14-3.36 7.5-7.5 7.5h-497c-4.14 0-7.5-3.36-7.5-7.5v-135.63c0-4.14 3.36-7.5 7.5-7.5h497c4.14 0 7.5 3.36 7.5 7.5z"
        fill="#5fe1ff"/>
    <path
        d="m512 145.43v135.63c0 4.14-3.36 7.5-7.5 7.5h-34c4.14 0 7.5-3.36 7.5-7.5v-135.63c0-4.14-3.36-7.5-7.5-7.5h34c4.14 0 7.5 3.36 7.5 7.5z"
        fill="#3eb6ff"/>
    <g fill="#325a93">
      <path
          d="m308.893 173.003c-3.964-1.202-8.151 1.042-9.35 5.008l-14.995 49.58-22.058-38.101c-1.341-2.316-3.814-3.742-6.491-3.742s-5.15 1.426-6.491 3.742l-22.058 38.101-14.995-49.58c-1.199-3.964-5.388-6.206-9.35-5.008-3.965 1.199-6.207 5.385-5.008 9.35l20 66.132c.865 2.861 3.346 4.935 6.314 5.279 2.967.343 5.858-1.106 7.355-3.692l24.234-41.855 24.231 41.854c1.351 2.333 3.835 3.742 6.489 3.742.287 0 .577-.016.867-.05 2.968-.345 5.449-2.418 6.314-5.279l20-66.132c1.199-3.964-1.044-8.15-5.008-9.349z"/>
      <path
          d="m163.786 173.003c-3.963-1.202-8.15 1.042-9.35 5.008l-14.995 49.58-22.058-38.101c-1.341-2.316-3.814-3.742-6.491-3.742s-5.15 1.426-6.491 3.742l-22.057 38.101-14.995-49.58c-1.199-3.964-5.388-6.206-9.35-5.008-3.965 1.199-6.207 5.385-5.008 9.35l20 66.132c.865 2.861 3.346 4.935 6.314 5.279 2.974.348 5.858-1.106 7.355-3.692l24.23-41.854 24.231 41.854c1.351 2.333 3.835 3.742 6.489 3.742.287 0 .577-.016.867-.05 2.968-.345 5.449-2.418 6.314-5.279l20-66.132c1.202-3.965-1.041-8.151-5.005-9.35z"/>
      <path
          d="m453.999 173.003c-3.963-1.202-8.15 1.042-9.35 5.008l-14.995 49.58-22.057-38.101c-1.341-2.316-3.814-3.742-6.491-3.742s-5.15 1.426-6.491 3.742l-22.058 38.101-14.995-49.58c-1.199-3.964-5.384-6.206-9.35-5.008-3.965 1.199-6.207 5.385-5.008 9.35l20 66.132c.865 2.861 3.346 4.935 6.314 5.279.29.034.579.05.867.05 2.653 0 5.138-1.409 6.489-3.742l24.231-41.854 24.23 41.854c1.498 2.586 4.385 4.036 7.355 3.692 2.968-.345 5.449-2.418 6.314-5.279l20-66.132c1.202-3.965-1.04-8.151-5.005-9.35z"/>
    </g>
    <g fill="#325a93">
      <path
          d="m222.73 318.486h-137.274c-4.142 0-7.5 3.358-7.5 7.5s3.358 7.5 7.5 7.5h137.274c4.142 0 7.5-3.358 7.5-7.5s-3.358-7.5-7.5-7.5z"/>
      <path
          d="m222.73 408.244h-31.216c-4.142 0-7.5 3.358-7.5 7.5s3.358 7.5 7.5 7.5h31.216c4.142 0 7.5-3.358 7.5-7.5s-3.358-7.5-7.5-7.5z"/>
      <path
          d="m156.795 408.244h-71.34c-4.142 0-7.5 3.358-7.5 7.5s3.358 7.5 7.5 7.5h71.34c4.142 0 7.5-3.358 7.5-7.5s-3.357-7.5-7.5-7.5z"/>
      <path
          d="m85.418 378.685h107.274c4.142 0 7.5-3.358 7.5-7.5s-3.358-7.5-7.5-7.5h-107.274c-4.142 0-7.5 3.358-7.5 7.5s3.358 7.5 7.5 7.5z"/>
      <path
          d="m426.004 408.244h-137.274c-4.142 0-7.5 3.358-7.5 7.5s3.358 7.5 7.5 7.5h137.274c4.142 0 7.5-3.358 7.5-7.5s-3.358-7.5-7.5-7.5z"/>
      <path
          d="m394.788 333.486h31.216c4.142 0 7.5-3.358 7.5-7.5s-3.358-7.5-7.5-7.5h-31.216c-4.142 0-7.5 3.358-7.5 7.5s3.358 7.5 7.5 7.5z"/>
      <path
          d="m288.73 333.486h71.339c4.142 0 7.5-3.358 7.5-7.5s-3.358-7.5-7.5-7.5h-71.339c-4.142 0-7.5 3.358-7.5 7.5s3.358 7.5 7.5 7.5z"/>
      <path
          d="m288.692 378.045h107.274c4.142 0 7.5-3.358 7.5-7.5s-3.358-7.5-7.5-7.5h-107.274c-4.142 0-7.5 3.358-7.5 7.5 0 4.143 3.358 7.5 7.5 7.5z"/>
    </g>
    <path d="m478.5 67.91v43.78h-30v-43.78c0-19-15.41-34.41-34.41-34.41h30c18.97 0 34.41 15.44 34.41 34.41z"
          fill="#132d77"/>
  </g>
</svg>