<svg xmlns="http://www.w3.org/2000/svg" xmlns:xlink="http://www.w3.org/1999/xlink" version="1.1" id="Capa_1" x="0px"
     y="0px" viewBox="0 0 512 512" style="enable-background:new 0 0 512 512;" width="512"
     height="512">
  <g>
    <path style="fill:#FFDA2D;"
          d="M195,120c-8.291,0-15-6.709-15-15V15c0-8.291,6.709-15,15-15s15,6.709,15,15v90    C210,113.291,203.291,120,195,120z"/>
    <path style="fill:#FDBF00;"
          d="M57.114,332.886c-5.859-5.859-5.859-15.352,0-21.211l63.647-63.647      c5.859-5.859,15.352-5.859,21.211,0s5.859,15.352,0,21.211l-63.647,63.647C72.466,338.745,62.974,338.745,57.114,332.886z"/>
    <path style="fill:#FFDA2D;"
          d="M248.027,141.973c-5.859-5.859-5.859-15.352,0-21.211l63.647-63.647    c5.859-5.859,15.352-5.859,21.211,0s5.859,15.352,0,21.211l-63.647,63.647C263.379,147.832,253.887,147.832,248.027,141.973z"/>
    <path style="fill:#FFDA2D;"
          d="M141.899,141.899c-5.7,6-15.3,6-20.999,0l-63.9-63.6c-5.7-5.7-5.7-15.3,0-21.301    c5.999-5.7,15.599-5.7,21.299,0l63.6,63.9C147.9,126.599,147.9,136.199,141.899,141.899z"/>
    <path style="fill:#FDBF00;"
          d="M105,210H15c-8.291,0-15-6.709-15-15s6.709-15,15-15h90c8.291,0,15,6.709,15,15      S113.291,210,105,210z"/>
    <path style="fill:#FDBF00;"
          d="M57.001,56.999l84.899,84.901c-5.7,6-15.3,6-20.999,0l-63.9-63.6   C51.301,72.599,51.301,62.999,57.001,56.999z"/>
    <path style="fill:#537983;"
          d="M502.935,301.099L184.636,165.2c-5.402-2.401-12.001-1.201-16.501,2.999    c-4.199,4.501-5.4,10.8-2.999,16.5L301.034,503c2.401,5.4,7.8,9,13.801,9h1.5c6.301-0.601,11.7-5.4,13.2-11.7l31.5-139.2    l139.2-31.5c6.301-1.5,11.1-6.899,11.7-13.2C512.536,309.8,508.936,303.8,502.935,301.099z"/>
    <path style="fill:#3E5959;"
          d="M361.034,361.099l-31.5,139.2c-1.5,6.301-6.899,11.1-13.2,11.7h-1.5c-6,0-11.4-3.6-13.801-9   L165.135,184.699c-2.401-5.7-1.199-11.999,2.999-16.5L361.034,361.099z"/>
  </g>
</svg>
